<svg width="20" height="16" viewBox="0 0 20 16" version="1.1" xmlns="http://www.w3.org/2000/svg" xmlns:xlink="http://www.w3.org/1999/xlink">
<title>bathtub</title>
<desc>Created using Figma</desc>
<g id="Canvas" transform="translate(-8942 397)">
<g id="bathtub">
<g id="Shape">
<use xlink:href="#path0_fill" transform="translate(8942 -397)"/>
</g>
<g id="Shape">
<use xlink:href="#path1_fill" transform="translate(8954 -394)"/>
</g>
<g id="Shape">
<use xlink:href="#path2_fill" transform="translate(8955 -393)"/>
</g>
<g id="Shape">
<use xlink:href="#path3_fill" transform="translate(8953 -395)"/>
</g>
</g>
</g>
<defs>
<path id="path0_fill" fill-rule="evenodd" d="M 18.8604 6.24969C 18.998 6.24969 19.1289 6.2709 19.2471 6.31183C 19.4082 6.36771 19.5479 6.46033 19.6543 6.58591C 19.7354 6.65811 19.8037 6.74084 19.8574 6.83221C 19.8906 6.88989 19.9189 6.95102 19.9404 7.01508C 19.9531 7.05014 19.9639 7.08612 19.9727 7.12286L 19.9834 7.1795C 19.9941 7.24326 20 7.30923 20 7.37701C 20 7.69345 19.8574 7.97034 19.6543 8.16812C 19.4502 8.38565 19.166 8.50433 18.8398 8.50433L 18.5762 8.50433L 18.1484 12.5983C 18.0879 13.152 17.8438 13.6663 17.4775 14.0222C 17.1113 14.3782 16.6426 14.5958 16.0732 14.5958C 16.0303 14.5958 15.9873 14.6028 15.9463 14.6168C 15.8896 14.6361 15.8359 14.6687 15.7881 14.7145C 15.707 14.7738 15.666 14.8727 15.666 14.9913C 15.666 15.0533 15.6768 15.1044 15.6963 15.1504C 15.7139 15.1925 15.7383 15.2304 15.7676 15.2682L 15.7881 15.288C 15.8066 15.3118 15.8291 15.3321 15.8545 15.3487L 15.8809 15.3646L 15.9023 15.3747C 15.9521 15.396 16.0098 15.4067 16.0732 15.4067C 16.2363 15.4067 16.3789 15.5451 16.3789 15.7033C 16.3789 15.8616 16.2568 16 16.0732 16C 15.7881 16 15.5234 15.8813 15.3408 15.7033L 15.3203 15.6836C 15.1377 15.5056 15.0352 15.2682 15.0352 14.9913C 15.0352 14.9347 15.0381 14.8781 15.0479 14.8228L 15.0625 14.7465C 15.0752 14.6939 15.0928 14.6433 15.1172 14.5958L 4.88281 14.5958C 4.92383 14.7145 4.96484 14.8529 4.96484 14.9913C 4.96484 15.1528 4.92285 15.3075 4.85254 15.4437C 4.80176 15.5411 4.73535 15.6291 4.65918 15.7033C 4.47656 15.8813 4.21191 16 3.92676 16C 3.76367 16 3.62109 15.8616 3.62109 15.7033C 3.62109 15.5451 3.74316 15.4067 3.92676 15.4067C 4.02832 15.4067 4.12988 15.3671 4.21191 15.288C 4.25488 15.2568 4.28613 15.2147 4.30664 15.1644C 4.31641 15.141 4.32324 15.1158 4.32812 15.0892C 4.33203 15.0644 4.33398 15.0383 4.33398 15.0111C 4.33398 14.9122 4.29297 14.8134 4.21191 14.7343C 4.15039 14.6551 4.04883 14.6156 3.92676 14.6156C 3.37695 14.6156 2.88867 14.398 2.52246 14.042C 2.15625 13.686 1.91211 13.1718 1.85156 12.618L 1.42383 8.52411L 1.16016 8.52411C 0.833984 8.52411 0.549805 8.38565 0.345703 8.1879C 0.12207 7.99011 0 7.71323 0 7.39679C 0 7.08035 0.142578 6.80347 0.345703 6.60568C 0.549805 6.38812 0.833984 6.26947 1.16016 6.26947L 17.9043 6.26947L 17.9043 0.613098L 16.4805 0.613098L 15.9717 0.870209L 16.0322 0.929535C 16.1543 1.06799 16.2158 1.2262 16.2158 1.38443C 16.2158 1.54263 16.1543 1.70087 16.0527 1.83929L 16.0322 1.8591L 15.0762 3.20395C 15.0557 3.22372 15.0352 3.26328 15.0156 3.28305C 14.9131 3.38196 14.751 3.44128 14.5879 3.44128C 14.5176 3.44128 14.4473 3.43173 14.3799 3.41263C 14.3105 3.39285 14.2432 3.36285 14.1807 3.32263C 14.1406 3.30286 14.1201 3.28305 14.0791 3.2435L 12.8994 2.07663C 12.8887 2.05518 12.8711 2.03955 12.8545 2.02344C 12.8408 2.00983 12.8271 1.99585 12.8184 1.97775C 12.7363 1.8591 12.6963 1.72064 12.6963 1.58221C 12.6963 1.50815 12.71 1.43842 12.7363 1.37305C 12.7666 1.29874 12.8145 1.23001 12.8789 1.16687L 12.9004 1.14737C 12.915 1.13409 12.9326 1.12082 12.96 1.10754L 14.3643 0.178009C 14.4307 0.141144 14.501 0.108582 14.5742 0.0842896C 14.6582 0.0564575 14.7451 0.0395508 14.832 0.0395508C 15.0156 0.0395508 15.1777 0.0791016 15.2998 0.21756L 15.5039 0.415314L 16.2363 0.0395508C 16.2607 0.0277405 16.292 0.0159302 16.3262 0.0083313C 16.3496 0.00320435 16.374 0 16.3984 0L 18.2295 0C 18.3926 0 18.5352 0.118652 18.5352 0.296661L 18.5352 6.24969L 18.8604 6.24969ZM 15.5645 1.48331C 15.585 1.44376 15.6055 1.42398 15.6055 1.42398L 15.6055 1.40421L 14.873 0.672424L 14.8525 0.672424C 14.832 0.672424 14.791 0.6922 14.751 0.711975L 13.3672 1.62173C 13.3672 1.62173 13.3877 1.64151 13.3877 1.66129L 14.5674 2.80838C 14.5674 2.82819 14.5879 2.82819 14.6084 2.82819L 15.5439 1.50308C 15.5537 1.50308 15.5586 1.49872 15.5615 1.49408C 15.5645 1.48886 15.5645 1.48331 15.5645 1.48331ZM 17.5381 12.5192C 17.4971 12.9345 17.3145 13.3103 17.0498 13.5674C 16.8057 13.8047 16.46 13.9629 16.0938 13.9629L 3.92676 13.9629C 3.54004 13.9629 3.21484 13.8047 2.9707 13.5674C 2.68555 13.3103 2.52246 12.9345 2.48242 12.5192L 2.05469 8.48456L 17.9854 8.48456L 17.5381 12.5192ZM 18.8604 7.89124C 19.0029 7.89124 19.125 7.83188 19.2266 7.733C 19.3291 7.63412 19.3896 7.51544 19.3896 7.37701C 19.3896 7.30429 19.373 7.2316 19.3457 7.16748C 19.3203 7.10953 19.2861 7.05859 19.2471 7.02103C 19.1807 6.95605 19.1045 6.90817 19.0205 6.88297C 18.9766 6.86978 18.9297 6.86279 18.8809 6.86279L 18.2305 6.86279L 1.16016 6.86279C 1.01758 6.86279 0.895508 6.92212 0.793945 7.02103C 0.692383 7.10013 0.630859 7.23856 0.630859 7.37701C 0.630859 7.51544 0.711914 7.63412 0.793945 7.733C 0.875 7.83188 1.01758 7.89124 1.16016 7.89124L 1.68848 7.89124L 18.332 7.89124L 18.8604 7.89124Z"/>
<path id="path1_fill" d="M 0.932836 0.0681818C 0.843284 -0.0227273 0.69403 -0.0227273 0.604478 0.0681818L 0.0671642 0.598485C -0.0223881 0.689394 -0.0223881 0.840909 0.0671642 0.931818C 0.156716 1.02273 0.30597 1.02273 0.395522 0.931818L 0.932836 0.401515C 1.02239 0.310606 1.02239 0.159091 0.932836 0.0681818Z"/>
<path id="path2_fill" d="M 0.783131 0.0226968C 0.620695 -0.0351582 0.437954 0.0226968 0.37704 0.138407L 0.0318623 0.688029C -0.049356 0.789275 0.0318623 0.919448 0.194299 0.977303C 0.356735 1.03516 0.539477 0.977303 0.60039 0.861593L 0.945568 0.311971C 1.02679 0.196262 0.945568 0.066088 0.783131 0.0226968Z"/>
<path id="path3_fill" d="M 0.983288 0.185607C 0.939353 0.0231702 0.792902 -0.0377435 0.690386 0.0231702L 0.133873 0.368348C 0.016712 0.429262 -0.0272232 0.632307 0.016712 0.774439C 0.0606473 0.936876 0.207098 0.99779 0.309614 0.936876L 0.866127 0.591698C 0.983288 0.530784 1.02722 0.327739 0.983288 0.185607Z"/>
</defs>
</svg>
