<svg width="22" height="20" viewBox="0 0 22 20" version="1.1" xmlns="http://www.w3.org/2000/svg" xmlns:xlink="http://www.w3.org/1999/xlink">
<title>bed 2</title>
<desc>Created using Figma</desc>
<g id="Canvas" transform="translate(-8941 433)">
<g id="bed 2">
<g id="Page 1">
<g id="Rooms / Desktop">
<g id="Romantic Cabana">
<g id="info">
<g id="bed">
<g id="Shape">
<use xlink:href="#path0_fill" transform="translate(8942 -432)"/>
<use xlink:href="#path1_stroke" transform="translate(8942 -432)" fill="#FFFFFF"/>
</g>
</g>
</g>
</g>
</g>
</g>
</g>
</g>
<defs>
<path id="path0_fill" d="M 19.9675 12.6178C 19.9983 12.5355 20.0091 12.4448 19.9808 12.3533L 18.3333 7.00959L 18.3333 2.07926C 18.3333 0.933177 17.3991 -3.92144e-10 16.25 -3.92144e-10L 3.74999 -3.92144e-10C 2.60082 -3.92144e-10 1.66668 0.933177 1.66668 2.07926L 1.66668 7.00963L 0.0191797 12.3533C -0.00914061 12.444 0.00167968 12.5347 0.0324999 12.6178C 0.0125 12.706 0 12.7966 0 12.8915L 0 16.2183L 0 17.8817C 0 18.1113 0.186679 18.2976 0.416679 18.2976L 2.08336 18.2976C 2.31332 18.2976 2.5 18.1113 2.5 17.8817L 2.5 16.6342L 17.5 16.6342L 17.5 17.8817C 17.5 18.1113 17.6866 18.2976 17.9166 18.2976L 19.5833 18.2976C 19.8133 18.2976 20 18.1113 20 17.8817L 20 16.2183L 20 12.8915C 20 12.7966 19.9875 12.706 19.9675 12.6178ZM 2.5 2.07926C 2.5 1.39142 3.06081 0.831696 3.74999 0.831696L 16.25 0.831696C 16.9391 0.831696 17.5 1.39142 17.5 2.07926L 17.5 6.65365L 16.3675 6.65365L 15.9791 5.10335C 15.8391 4.54694 15.34 4.15852 14.7658 4.15852L 12.0833 4.15852C 11.3941 4.15852 10.8333 4.71825 10.8333 5.40608L 10.8333 6.65365L 9.16662 6.65365L 9.16662 5.4069C 9.16662 4.71906 8.6058 4.15934 7.91663 4.15934L 5.23413 4.15934C 4.65995 4.15934 4.16081 4.54858 4.02081 5.10417L 3.63249 6.65365L 2.5 6.65365L 2.5 2.07926ZM 15.5117 7.32565C 15.4317 7.42713 15.3117 7.48534 15.1825 7.48534L 12.0833 7.48534C 11.8541 7.48534 11.6666 7.29903 11.6666 7.06947L 11.6666 5.40608C 11.6666 5.17653 11.8541 4.99021 12.0833 4.99021L 14.7666 4.99021C 14.9583 4.99021 15.1241 5.11914 15.1708 5.3046L 15.5875 6.96803C 15.6191 7.09361 15.5917 7.22335 15.5117 7.32565ZM 8.33416 5.40608L 8.33416 7.06534C 8.33416 7.06702 8.33334 7.06784 8.33334 7.06951C 8.33334 7.07033 8.33334 7.07119 8.33334 7.07119C 8.33252 7.29992 8.14584 7.48538 7.91752 7.48538L 4.81835 7.48538C 4.68835 7.48538 4.56917 7.42717 4.48917 7.32569C 4.40917 7.22339 4.38167 7.09283 4.41335 6.96807L 4.83003 5.30464C 4.87671 5.12 5.04253 4.99025 5.23503 4.99025L 7.91752 4.99025C 8.14666 4.99021 8.33416 5.17653 8.33416 5.40608ZM 2.39082 7.48534L 3.64499 7.48534C 3.68917 7.6101 3.74667 7.72986 3.83081 7.83797C 4.07081 8.14238 4.42999 8.31704 4.81749 8.31704L 7.91666 8.31704C 8.45916 8.31704 8.91748 7.96772 9.08998 7.48534L 10.91 7.48534C 11.0825 7.96858 11.5408 8.31704 12.0833 8.31704L 15.1825 8.31704C 15.57 8.31704 15.9283 8.14238 16.1683 7.83797C 16.2525 7.73068 16.31 7.6101 16.3541 7.48534L 17.6091 7.48534L 18.8958 11.6589C 18.8475 11.6531 18.8 11.6439 18.75 11.6439L 1.25 11.6439C 1.2 11.6439 1.1525 11.6531 1.105 11.6589L 2.39082 7.48534ZM 1.66668 17.4658L 0.833319 17.4658L 0.833319 16.6342L 1.66664 16.6342L 1.66664 17.4658L 1.66668 17.4658ZM 19.1666 17.4658L 18.3333 17.4658L 18.3333 16.6342L 19.1666 16.6342L 19.1666 17.4658ZM 19.1666 15.8025L 0.833319 15.8025L 0.833319 12.8915C 0.833319 12.6619 1.02082 12.4756 1.25 12.4756L 18.75 12.4756C 18.9791 12.4756 19.1666 12.6619 19.1666 12.8915L 19.1666 15.8025Z"/>
<path id="path1_stroke" d="M 19.9675 12.6178L 19.8738 12.5828L 19.8633 12.6108L 19.8699 12.6399L 19.9675 12.6178ZM 19.9808 12.3533L 19.8852 12.3828L 19.8853 12.3829L 19.9808 12.3533ZM 18.3333 7.00959L 18.2333 7.00959L 18.2333 7.02466L 18.2377 7.03905L 18.3333 7.00959ZM 1.66668 7.00963L 1.76224 7.03909L 1.76668 7.0247L 1.76668 7.00963L 1.66668 7.00963ZM 0.0191797 12.3533L 0.11463 12.3832L 0.114741 12.3828L 0.0191797 12.3533ZM 0.0324999 12.6178L 0.130023 12.6399L 0.136599 12.6109L 0.126267 12.5831L 0.0324999 12.6178ZM 2.5 16.6342L 2.5 16.5342L 2.4 16.5342L 2.4 16.6342L 2.5 16.6342ZM 17.5 16.6342L 17.6 16.6342L 17.6 16.5342L 17.5 16.5342L 17.5 16.6342ZM 20 12.8915L 20.1 12.8915L 20.1 12.8914L 20 12.8915ZM 17.5 6.65365L 17.5 6.75364L 17.6 6.75364L 17.6 6.65365L 17.5 6.65365ZM 16.3675 6.65365L 16.2705 6.67794L 16.2894 6.75364L 16.3675 6.75364L 16.3675 6.65365ZM 15.9791 5.10335L 16.0762 5.07906L 16.0761 5.07895L 15.9791 5.10335ZM 10.8333 6.65365L 10.8333 6.75364L 10.9333 6.75364L 10.9333 6.65365L 10.8333 6.65365ZM 9.16662 6.65365L 9.06662 6.65365L 9.06662 6.75364L 9.16662 6.75364L 9.16662 6.65365ZM 4.02081 5.10417L 3.92384 5.07974L 3.92381 5.07986L 4.02081 5.10417ZM 3.63249 6.65365L 3.63249 6.75364L 3.71052 6.75364L 3.72949 6.67795L 3.63249 6.65365ZM 2.5 6.65365L 2.4 6.65365L 2.4 6.75364L 2.5 6.75364L 2.5 6.65365ZM 15.5117 7.32565L 15.5902 7.38756L 15.5904 7.38725L 15.5117 7.32565ZM 15.1708 5.3046L 15.2678 5.2803L 15.2678 5.28019L 15.1708 5.3046ZM 15.5875 6.96803L 15.4905 6.99233L 15.4905 6.99249L 15.5875 6.96803ZM 8.33334 7.07119L 8.43334 7.07155L 8.43334 7.07119L 8.33334 7.07119ZM 4.48917 7.32569L 4.4104 7.38729L 4.41064 7.3876L 4.48917 7.32569ZM 4.41335 6.96807L 4.51028 6.99268L 4.51035 6.99237L 4.41335 6.96807ZM 4.83003 5.30464L 4.73308 5.28013L 4.73303 5.28034L 4.83003 5.30464ZM 7.91752 4.99025L 7.91752 5.09025L 7.91754 5.09025L 7.91752 4.99025ZM 2.39082 7.48534L 2.39082 7.38534L 2.31699 7.38534L 2.29525 7.4559L 2.39082 7.48534ZM 3.64499 7.48534L 3.73926 7.45196L 3.71567 7.38534L 3.64499 7.38534L 3.64499 7.48534ZM 3.83081 7.83797L 3.7519 7.89939L 3.75228 7.89989L 3.83081 7.83797ZM 9.08998 7.48534L 9.08998 7.38534L 9.01954 7.38534L 8.99582 7.45167L 9.08998 7.48534ZM 10.91 7.48534L 11.0042 7.45172L 10.9805 7.38534L 10.91 7.38534L 10.91 7.48534ZM 16.1683 7.83797L 16.2468 7.89989L 16.247 7.8997L 16.1683 7.83797ZM 16.3541 7.48534L 16.3541 7.38534L 16.2834 7.38534L 16.2598 7.45199L 16.3541 7.48534ZM 17.6091 7.48534L 17.7047 7.45588L 17.6829 7.38534L 17.6091 7.38534L 17.6091 7.48534ZM 18.8958 11.6589L 18.8838 11.7582L 19.0367 11.7765L 18.9913 11.6294L 18.8958 11.6589ZM 1.105 11.6589L 1.00943 11.6294L 0.964009 11.7769L 1.11714 11.7581L 1.105 11.6589ZM 0.833319 17.4658L 0.733319 17.4658L 0.733319 17.5658L 0.833319 17.5658L 0.833319 17.4658ZM 0.833319 16.6342L 0.833319 16.5342L 0.733319 16.5342L 0.733319 16.6342L 0.833319 16.6342ZM 1.66664 16.6342L 1.76664 16.6342L 1.76664 16.5342L 1.66664 16.5342L 1.66664 16.6342ZM 1.66664 17.4658L 1.56664 17.4658L 1.56664 17.5658L 1.66664 17.5658L 1.66664 17.4658ZM 19.1666 17.4658L 19.1666 17.5658L 19.2666 17.5658L 19.2666 17.4658L 19.1666 17.4658ZM 18.3333 17.4658L 18.2333 17.4658L 18.2333 17.5658L 18.3333 17.5658L 18.3333 17.4658ZM 18.3333 16.6342L 18.3333 16.5342L 18.2333 16.5342L 18.2333 16.6342L 18.3333 16.6342ZM 19.1666 16.6342L 19.2666 16.6342L 19.2666 16.5342L 19.1666 16.5342L 19.1666 16.6342ZM 19.1666 15.8025L 19.1666 15.9025L 19.2666 15.9025L 19.2666 15.8025L 19.1666 15.8025ZM 0.833319 15.8025L 0.733319 15.8025L 0.733319 15.9025L 0.833319 15.9025L 0.833319 15.8025ZM 20.0611 12.6529C 20.0954 12.5591 20.1087 12.4358 20.0763 12.3237L 19.8853 12.3829C 19.9096 12.4539 19.9011 12.5118 19.8738 12.5828L 20.0611 12.6529ZM 20.0763 12.3239L 18.4288 6.98013L 18.2377 7.03905L 19.8852 12.3828L 20.0763 12.3239ZM 18.4333 7.00959L 18.4333 2.07926L 18.2333 2.07926L 18.2333 7.00959L 18.4333 7.00959ZM 18.4333 2.07926C 18.4333 0.877791 17.4542 -0.1 16.25 -0.1L 16.25 0.1C 17.344 0.1 18.2333 0.988564 18.2333 2.07926L 18.4333 2.07926ZM 16.25 -0.1L 3.74999 -0.1L 3.74999 0.1L 16.25 0.1L 16.25 -0.1ZM 3.74999 -0.1C 2.54574 -0.1 1.56668 0.877792 1.56668 2.07926L 1.76668 2.07926C 1.76668 0.988563 2.65589 0.1 3.74999 0.1L 3.74999 -0.1ZM 1.56668 2.07926L 1.56668 7.00963L 1.76668 7.00963L 1.76668 2.07926L 1.56668 2.07926ZM 1.57112 6.98017L -0.0763818 12.3239L 0.114741 12.3828L 1.76224 7.03909L 1.57112 6.98017ZM -0.0762701 12.3235C -0.108717 12.4348 -0.0955287 12.5581 -0.0612672 12.6526L 0.126267 12.5831C 0.098888 12.5112 0.0904362 12.4532 0.114629 12.3832L -0.0762701 12.3235ZM -0.0650235 12.5957C -0.0858839 12.6881 -0.0997654 12.7898 -0.1 12.8915L 0.1 12.8915C 0.0997654 12.8035 0.110884 12.7239 0.130023 12.6399L -0.0650235 12.5957ZM -0.1 12.8915L -0.1 16.2183L 0.1 16.2183L 0.1 12.8915L -0.1 12.8915ZM -0.1 16.2183L -0.1 17.8817L 0.1 17.8817L 0.1 16.2183L -0.1 16.2183ZM -0.1 17.8817C -0.1 18.1667 0.131635 18.3976 0.416679 18.3976L 0.416679 18.1976C 0.241724 18.1976 0.1 18.0559 0.1 17.8817L -0.1 17.8817ZM 0.416679 18.3976L 2.08336 18.3976L 2.08336 18.1976L 0.416679 18.1976L 0.416679 18.3976ZM 2.08336 18.3976C 2.36837 18.3976 2.6 18.1667 2.6 17.8817L 2.4 17.8817C 2.4 18.0559 2.25827 18.1976 2.08336 18.1976L 2.08336 18.3976ZM 2.6 17.8817L 2.6 16.6342L 2.4 16.6342L 2.4 17.8817L 2.6 17.8817ZM 2.5 16.7342L 17.5 16.7342L 17.5 16.5342L 2.5 16.5342L 2.5 16.7342ZM 17.4 16.6342L 17.4 17.8817L 17.6 17.8817L 17.6 16.6342L 17.4 16.6342ZM 17.4 17.8817C 17.4 18.1667 17.6316 18.3976 17.9166 18.3976L 17.9166 18.1976C 17.7417 18.1976 17.6 18.0559 17.6 17.8817L 17.4 17.8817ZM 17.9166 18.3976L 19.5833 18.3976L 19.5833 18.1976L 17.9166 18.1976L 17.9166 18.3976ZM 19.5833 18.3976C 19.8684 18.3976 20.1 18.1667 20.1 17.8817L 19.9 17.8817C 19.9 18.0559 19.7583 18.1976 19.5833 18.1976L 19.5833 18.3976ZM 20.1 17.8817L 20.1 16.2183L 19.9 16.2183L 19.9 17.8817L 20.1 17.8817ZM 20.1 16.2183L 20.1 12.8915L 19.9 12.8915L 19.9 16.2183L 20.1 16.2183ZM 20.1 12.8914C 20.0997 12.7898 20.0858 12.6881 20.065 12.5957L 19.8699 12.6399C 19.8891 12.7239 19.9002 12.8035 19.9 12.8915L 20.1 12.8914ZM 2.6 2.07926C 2.6 1.44684 3.11586 0.931696 3.74999 0.931696L 3.74999 0.731696C 3.00577 0.731696 2.4 1.33601 2.4 2.07926L 2.6 2.07926ZM 3.74999 0.931696L 16.25 0.931696L 16.25 0.731696L 3.74999 0.731696L 3.74999 0.931696ZM 16.25 0.931696C 16.8841 0.931696 17.4 1.44684 17.4 2.07926L 17.6 2.07926C 17.6 1.33601 16.9942 0.731696 16.25 0.731696L 16.25 0.931696ZM 17.4 2.07926L 17.4 6.65365L 17.6 6.65365L 17.6 2.07926L 17.4 2.07926ZM 17.5 6.55365L 16.3675 6.55365L 16.3675 6.75364L 17.5 6.75364L 17.5 6.55365ZM 16.4645 6.62935L 16.0762 5.07906L 15.8821 5.12765L 16.2705 6.67794L 16.4645 6.62935ZM 16.0761 5.07895C 15.9249 4.47799 15.3857 4.05852 14.7658 4.05852L 14.7658 4.25852C 15.2942 4.25852 15.7534 4.61589 15.8822 5.12775L 16.0761 5.07895ZM 14.7658 4.05852L 12.0833 4.05852L 12.0833 4.25852L 14.7658 4.25852L 14.7658 4.05852ZM 12.0833 4.05852C 11.3391 4.05852 10.7333 4.66283 10.7333 5.40608L 10.9333 5.40608C 10.9333 4.77366 11.4492 4.25852 12.0833 4.25852L 12.0833 4.05852ZM 10.7333 5.40608L 10.7333 6.65365L 10.9333 6.65365L 10.9333 5.40608L 10.7333 5.40608ZM 10.8333 6.55365L 9.16662 6.55365L 9.16662 6.75364L 10.8333 6.75364L 10.8333 6.55365ZM 9.26662 6.65365L 9.26662 5.4069L 9.06662 5.4069L 9.06662 6.65365L 9.26662 6.65365ZM 9.26662 5.4069C 9.26662 4.66365 8.66085 4.05934 7.91663 4.05934L 7.91663 4.25934C 8.55076 4.25934 9.06662 4.77448 9.06662 5.4069L 9.26662 5.4069ZM 7.91663 4.05934L 5.23413 4.05934L 5.23413 4.25934L 7.91663 4.25934L 7.91663 4.05934ZM 5.23413 4.05934C 4.61416 4.05934 4.07504 4.47969 3.92384 5.07974L 4.11778 5.12861C 4.24658 4.61746 4.70574 4.25934 5.23413 4.25934L 5.23413 4.05934ZM 3.92381 5.07986L 3.53549 6.62934L 3.72949 6.67795L 4.11781 5.12848L 3.92381 5.07986ZM 3.63249 6.55365L 2.5 6.55365L 2.5 6.75364L 3.63249 6.75364L 3.63249 6.55365ZM 2.6 6.65365L 2.6 2.07926L 2.4 2.07926L 2.4 6.65365L 2.6 6.65365ZM 15.4331 7.26374C 15.3721 7.34118 15.281 7.38534 15.1825 7.38534L 15.1825 7.58534C 15.3423 7.58534 15.4912 7.51309 15.5902 7.38756L 15.4331 7.26374ZM 15.1825 7.38534L 12.0833 7.38534L 12.0833 7.58534L 15.1825 7.58534L 15.1825 7.38534ZM 12.0833 7.38534C 11.909 7.38534 11.7666 7.24349 11.7666 7.06947L 11.5666 7.06947C 11.5666 7.35457 11.7992 7.58534 12.0833 7.58534L 12.0833 7.38534ZM 11.7666 7.06947L 11.7666 5.40608L 11.5666 5.40608L 11.5666 7.06947L 11.7666 7.06947ZM 11.7666 5.40608C 11.7666 5.23207 11.909 5.09021 12.0833 5.09021L 12.0833 4.89021C 11.7992 4.89021 11.5666 5.12099 11.5666 5.40608L 11.7666 5.40608ZM 12.0833 5.09021L 14.7666 5.09021L 14.7666 4.89021L 12.0833 4.89021L 12.0833 5.09021ZM 14.7666 5.09021C 14.9126 5.09021 15.0384 5.18817 15.0738 5.32901L 15.2678 5.28019C 15.2099 5.05011 15.0039 4.89021 14.7666 4.89021L 14.7666 5.09021ZM 15.0738 5.3289L 15.4905 6.99233L 15.6845 6.94373L 15.2678 5.2803L 15.0738 5.3289ZM 15.4905 6.99249C 15.5146 7.08802 15.4939 7.18602 15.4329 7.26405L 15.5904 7.38725C 15.6894 7.26069 15.7237 7.09919 15.6844 6.94357L 15.4905 6.99249ZM 8.23416 5.40608L 8.23416 7.06534L 8.43416 7.06534L 8.43416 5.40608L 8.23416 5.40608ZM 8.23416 7.06534C 8.23416 7.04861 8.23892 7.03571 8.23876 7.03618C 8.23851 7.03696 8.23334 7.05111 8.23334 7.06951L 8.43334 7.06951C 8.43334 7.08624 8.42859 7.09915 8.42875 7.09867C 8.429 7.0979 8.43416 7.08375 8.43416 7.06534L 8.23416 7.06534ZM 8.23334 7.06951C 8.23334 7.06992 8.23334 7.07034 8.23334 7.07066C 8.23334 7.07082 8.23334 7.07095 8.23334 7.07104C 8.23334 7.07109 8.23334 7.07113 8.23334 7.07115C 8.23334 7.07116 8.23334 7.07117 8.23334 7.07118C 8.23334 7.07118 8.23334 7.07118 8.23334 7.07119C 8.23334 7.07119 8.23334 7.07119 8.23334 7.07119C 8.23334 7.07119 8.23334 7.07119 8.23334 7.07119C 8.23334 7.07119 8.23334 7.07119 8.33334 7.07119C 8.43334 7.07119 8.43334 7.07119 8.43334 7.07119C 8.43334 7.07119 8.43334 7.07119 8.43334 7.07119C 8.43334 7.07119 8.43334 7.07119 8.43334 7.07119C 8.43334 7.07118 8.43334 7.07118 8.43334 7.07118C 8.43334 7.07117 8.43334 7.07116 8.43334 7.07115C 8.43334 7.07113 8.43334 7.07109 8.43334 7.07104C 8.43334 7.07095 8.43334 7.07082 8.43334 7.07066C 8.43334 7.07034 8.43334 7.06992 8.43334 7.06951L 8.23334 7.06951ZM 8.23334 7.07083C 8.23272 7.24437 8.09086 7.38538 7.91752 7.38538L 7.91752 7.58538C 8.20082 7.58538 8.43232 7.35548 8.43334 7.07155L 8.23334 7.07083ZM 7.91752 7.38538L 4.81835 7.38538L 4.81835 7.58538L 7.91752 7.58538L 7.91752 7.38538ZM 4.81835 7.38538C 4.71909 7.38538 4.62881 7.3413 4.5677 7.26378L 4.41064 7.3876C 4.50953 7.51305 4.65761 7.58538 4.81835 7.58538L 4.81835 7.38538ZM 4.56794 7.26409C 4.50691 7.18605 4.48625 7.08729 4.51027 6.99268L 4.31643 6.94346C 4.27709 7.09837 4.31143 7.26074 4.4104 7.38729L 4.56794 7.26409ZM 4.51035 6.99237L 4.92703 5.32894L 4.73303 5.28034L 4.31635 6.94377L 4.51035 6.99237ZM 4.92698 5.32915C 4.96242 5.18896 5.08826 5.09025 5.23503 5.09025L 5.23503 4.89025C 4.9968 4.89025 4.791 5.05104 4.73308 5.28013L 4.92698 5.32915ZM 5.23503 5.09025L 7.91752 5.09025L 7.91752 4.89025L 5.23503 4.89025L 5.23503 5.09025ZM 7.91754 5.09025C 8.09174 5.09022 8.23416 5.23206 8.23416 5.40608L 8.43416 5.40608C 8.43416 5.121 8.20159 4.8902 7.91751 4.89025L 7.91754 5.09025ZM 2.39082 7.58534L 3.64499 7.58534L 3.64499 7.38534L 2.39082 7.38534L 2.39082 7.58534ZM 3.55073 7.51872C 3.59683 7.64848 3.66166 7.78251 3.7519 7.89939L 3.90973 7.77655C 3.83169 7.67721 3.78151 7.57171 3.73926 7.45196L 3.55073 7.51872ZM 3.75228 7.89989C 4.01119 8.22827 4.39928 8.41704 4.81749 8.41704L 4.81749 8.21704C 4.46071 8.21704 4.13043 8.05648 3.90934 7.77606L 3.75228 7.89989ZM 4.81749 8.41704L 7.91666 8.41704L 7.91666 8.21704L 4.81749 8.21704L 4.81749 8.41704ZM 7.91666 8.41704C 8.50349 8.41704 8.99813 8.03918 9.18414 7.51901L 8.99582 7.45167C 8.83684 7.89626 8.41484 8.21704 7.91666 8.21704L 7.91666 8.41704ZM 9.08998 7.58534L 10.91 7.58534L 10.91 7.38534L 9.08998 7.38534L 9.08998 7.58534ZM 10.8158 7.51896C 11.0018 8.04011 11.4966 8.41704 12.0833 8.41704L 12.0833 8.21704C 11.585 8.21704 11.1631 7.89705 11.0042 7.45172L 10.8158 7.51896ZM 12.0833 8.41704L 15.1825 8.41704L 15.1825 8.21704L 12.0833 8.21704L 12.0833 8.41704ZM 15.1825 8.41704C 15.6008 8.41704 15.988 8.22822 16.2468 7.89989L 16.0898 7.77606C 15.8686 8.05654 15.5392 8.21704 15.1825 8.21704L 15.1825 8.41704ZM 16.247 7.8997C 16.3375 7.78339 16.4024 7.64835 16.4484 7.5187L 16.2598 7.45199C 16.2176 7.57185 16.1675 7.67798 16.0896 7.77625L 16.247 7.8997ZM 16.3541 7.58534L 17.6091 7.58534L 17.6091 7.38534L 16.3541 7.38534L 16.3541 7.58534ZM 17.5135 7.5148L 18.8002 11.6883L 18.9913 11.6294L 17.7047 7.45588L 17.5135 7.5148ZM 18.9077 11.5596C 18.8629 11.5543 18.8095 11.5444 18.75 11.5439L 18.75 11.7439C 18.7905 11.7434 18.832 11.7519 18.8838 11.7582L 18.9077 11.5596ZM 18.75 11.5439L 1.25 11.5439L 1.25 11.7439L 18.75 11.7439L 18.75 11.5439ZM 1.25 11.5439C 1.19049 11.5444 1.13695 11.5543 1.09286 11.5596L 1.11714 11.7581C 1.16805 11.7518 1.20951 11.7434 1.25 11.7439L 1.25 11.5439ZM 1.20057 11.6883L 2.48638 7.51478L 2.29525 7.4559L 1.00943 11.6294L 1.20057 11.6883ZM 1.66668 17.3658L 0.833319 17.3658L 0.833319 17.5658L 1.66668 17.5658L 1.66668 17.3658ZM 0.933319 17.4658L 0.933319 16.6342L 0.733319 16.6342L 0.733319 17.4658L 0.933319 17.4658ZM 0.833319 16.7342L 1.66664 16.7342L 1.66664 16.5342L 0.833319 16.5342L 0.833319 16.7342ZM 1.56664 16.6342L 1.56664 17.4658L 1.76664 17.4658L 1.76664 16.6342L 1.56664 16.6342ZM 1.66664 17.5658L 1.66668 17.5658L 1.66668 17.3658L 1.66664 17.3658L 1.66664 17.5658ZM 19.1666 17.3658L 18.3333 17.3658L 18.3333 17.5658L 19.1666 17.5658L 19.1666 17.3658ZM 18.4333 17.4658L 18.4333 16.6342L 18.2333 16.6342L 18.2333 17.4658L 18.4333 17.4658ZM 18.3333 16.7342L 19.1666 16.7342L 19.1666 16.5342L 18.3333 16.5342L 18.3333 16.7342ZM 19.0666 16.6342L 19.0666 17.4658L 19.2666 17.4658L 19.2666 16.6342L 19.0666 16.6342ZM 19.1666 15.7025L 0.833319 15.7025L 0.833319 15.9025L 19.1666 15.9025L 19.1666 15.7025ZM 0.933319 15.8025L 0.933319 12.8915L 0.733319 12.8915L 0.733319 15.8025L 0.933319 15.8025ZM 0.933319 12.8915C 0.933319 12.7175 1.07573 12.5756 1.25 12.5756L 1.25 12.3756C 0.965902 12.3756 0.733319 12.6064 0.733319 12.8915L 0.933319 12.8915ZM 1.25 12.5756L 18.75 12.5756L 18.75 12.3756L 1.25 12.3756L 1.25 12.5756ZM 18.75 12.5756C 18.9242 12.5756 19.0666 12.7175 19.0666 12.8915L 19.2666 12.8915C 19.2666 12.6064 19.0341 12.3756 18.75 12.3756L 18.75 12.5756ZM 19.0666 12.8915L 19.0666 15.8025L 19.2666 15.8025L 19.2666 12.8915L 19.0666 12.8915Z"/>
</defs>
</svg>
