<svg width="16" height="16" viewBox="0 0 16 16" version="1.1" xmlns="http://www.w3.org/2000/svg" xmlns:xlink="http://www.w3.org/1999/xlink">
<title>search</title>
<desc>Created using Figma</desc>
<g id="Canvas" transform="translate(-6983 -817)">
<g id="search">
<g id="Shape" opacity="0.64">
<use xlink:href="#path0_fill" transform="translate(6983.15 817.147)" fill="#484848"/>
</g>
</g>
</g>
<defs>
<path id="path0_fill" fill-rule="evenodd" d="M 11.4829 10.9837L 15.1191 14.462C 15.3374 14.6707 15.2646 15.0185 15.0469 15.2272C 14.8286 15.4359 14.4648 15.4359 14.2466 15.2272L 10.6104 11.7489L 10.6104 11.6793C 9.30127 12.6533 7.55566 13.1402 5.7373 12.8619C 2.10107 12.3054 -0.444336 9.10541 0.0649414 5.55762C 0.646484 2.00977 4.06494 -0.424988 7.70117 0.0619507C 11.3374 0.618469 13.8828 3.81848 13.374 7.36633C 13.1558 8.82715 12.501 10.0098 11.4829 10.9837ZM 1.15576 5.69672C 0.719238 8.68805 2.90137 11.4011 5.95557 11.8185C 9.01025 12.2358 11.9194 10.1489 12.3555 7.22717C 12.792 4.23584 10.6104 1.52283 7.55566 1.10541C 4.42822 0.688049 1.59229 2.77502 1.15576 5.69672Z"/>
</defs>
</svg>
